

<svg xmlns="http://www.w3.org/2000/svg">
 <defs>
<symbol id="icon-star" viewBox="0 0 25 24">
  <path
    d="M12.8822 0.914133C13.074 1.02161 13.2324 1.17603 13.3411 1.3615C14.4104 3.21596 15.2906 5.16579 15.9695 7.18159C16.0633 7.44316 16.2391 7.67071 16.473 7.83322C16.707 7.99572 16.9876 8.08528 17.2767 8.08968C19.105 8.13389 20.9274 8.30751 22.729 8.60911C23.7193 8.77533 24.0898 9.85331 23.387 10.5108C22.024 11.7863 20.5679 12.9674 19.0298 14.0454C18.5596 14.3742 18.3679 14.9376 18.5468 15.4534C19.1132 17.0817 19.546 18.7497 19.8412 20.4424C19.9 20.7846 19.9541 21.1289 20.0035 21.4752C20.1312 22.3979 19.0975 23.0493 18.2018 22.6093C16.4228 21.7375 14.7218 20.727 13.1162 19.5881C12.8646 19.4125 12.5613 19.3178 12.2498 19.3178C11.9384 19.3178 11.635 19.4125 11.3835 19.5881C9.77755 20.7265 8.07664 21.737 6.29791 22.6093C5.4009 23.0493 4.36845 22.3979 4.49623 21.4752C4.78376 19.4287 5.27145 17.4126 5.95291 15.4534C6.1318 14.9376 5.93885 14.3742 5.4699 14.0454C4.11415 13.0931 2.82113 12.0616 1.59821 10.9569C1.43465 10.8103 1.2728 10.6616 1.11265 10.5108C0.409865 9.85331 0.781702 8.77533 1.77071 8.60911C3.57251 8.30926 5.39479 8.13565 7.22303 8.08968C7.82615 8.07379 8.35259 7.70835 8.53021 7.18159C9.04585 5.65003 9.67791 4.1566 10.4213 2.71325C10.6573 2.25696 10.9031 1.80638 11.1586 1.3615C11.2673 1.17603 11.4257 1.02161 11.6175 0.914133C11.8093 0.806654 12.0276 0.75 12.2498 0.75C12.4721 0.75 12.6904 0.806654 12.8822 0.914133Z"
    stroke="currentColor"
    stroke-width="1.5"
    stroke-linecap="round"
    stroke-linejoin="round"
    fill="none"
  />
</symbol>

<symbol id="icon-gamepad" viewBox="0 0 28 21">
  <path
    d="M8.39981 6.05786V11.0079M10.8769 8.53286H5.9248"
    stroke="currentColor"
    stroke-width="1.5"
    stroke-linecap="round"
    stroke-linejoin="round"
    fill="none"
  />
  <path
    d="M1.66275 6.46929L0.77989 14.4193C0.653149 15.5607 0.932027 16.7104 1.56768 17.6669C2.20334 18.6234 3.15524 19.3258 4.25669 19.651C5.35813 19.9763 6.53889 19.9036 7.59217 19.4459C8.64546 18.9881 9.50411 18.1743 10.0177 17.1471L10.7892 15.6043H17.1535L17.9249 17.1471C18.4394 18.1728 19.298 18.985 20.3507 19.4417C21.4033 19.8984 22.583 19.9705 23.6835 19.6455C24.784 19.3204 25.7352 18.6189 26.3708 17.6636C27.0064 16.7082 27.2859 15.5599 27.1606 14.4193L26.2799 6.46929C26.1053 4.89668 25.3569 3.44369 24.1779 2.38845C22.9989 1.3332 21.4722 0.749833 19.8899 0.75H8.05275C6.47048 0.749833 4.94373 1.3332 3.76473 2.38845C2.58574 3.44369 1.83732 4.89668 1.66275 6.46929Z"
    stroke="currentColor"
    stroke-width="1.5"
    stroke-linejoin="round"
    fill="none"
  />
  <path
    d="M21.0444 6.94977C21.1369 7.04829 21.2634 7.1079 21.3982 7.11647C21.4707 7.12108 21.5434 7.11079 21.6117 7.08622C21.6801 7.06165 21.7427 7.02333 21.7956 6.97363C21.8486 6.92393 21.8908 6.86391 21.9197 6.79725C21.9485 6.7306 21.9634 6.65875 21.9634 6.58612C21.9634 6.51349 21.9485 6.44163 21.9197 6.37498C21.8908 6.30833 21.8486 6.2483 21.7956 6.1986C21.7427 6.1489 21.6801 6.11058 21.6117 6.08601C21.5434 6.06145 21.4707 6.05115 21.3982 6.05576C21.2634 6.06433 21.1369 6.12394 21.0444 6.22246C20.952 6.32098 20.9005 6.45101 20.9005 6.58612C20.9005 6.72122 20.952 6.85125 21.0444 6.94977Z"
    stroke="currentColor"
    stroke-width="1.5"
    stroke-linecap="round"
    stroke-linejoin="round"
    fill="none"
  />
  <path
    d="M17.8514 9.41554C17.7528 9.50799 17.6932 9.6345 17.6847 9.76933C17.6801 9.84181 17.6904 9.91447 17.7149 9.98282C17.7395 10.0512 17.7778 10.1138 17.8275 10.1667C17.8772 10.2197 17.9372 10.2619 18.0039 10.2907C18.0705 10.3196 18.1424 10.3345 18.215 10.3345C18.2877 10.3345 18.3595 10.3196 18.4262 10.2907C18.4928 10.2619 18.5528 10.2197 18.6025 10.1667C18.6522 10.1138 18.6906 10.0512 18.7151 9.98282C18.7397 9.91447 18.75 9.84181 18.7454 9.76933C18.7368 9.6345 18.6772 9.50799 18.5787 9.41554C18.4802 9.32309 18.3501 9.27163 18.215 9.27163C18.0799 9.27163 17.9499 9.32309 17.8514 9.41554Z"
    stroke="currentColor"
    stroke-width="1.5"
    stroke-linecap="round"
    stroke-linejoin="round"
    fill="none"
  />
</symbol>

<symbol id="icon-puzzle" viewBox="0 0 22 23">
  <path
    d="M19.1333 11.25C19.7867 11.25 20.1133 11.25 20.363 11.1228C20.5825 11.011 20.761 10.8325 20.8728 10.613C21 10.3633 21 10.0367 21 9.38333V6.81667C21 6.16333 21 5.83667 20.8728 5.587C20.761 5.36749 20.5825 5.18902 20.363 5.07717C20.1133 4.95 19.7867 4.95 19.1333 4.95H17.325C17.0465 4.95 16.7795 4.83938 16.5825 4.64246C16.3856 4.44555 16.275 4.17848 16.275 3.9C16.275 3.06457 15.9431 2.26335 15.3524 1.67261C14.7616 1.08187 13.9604 0.75 13.125 0.75C12.2896 0.75 11.4884 1.08187 10.8976 1.67261C10.3069 2.26335 9.975 3.06457 9.975 3.9C9.975 4.17848 9.86437 4.44555 9.66746 4.64246C9.47055 4.83938 9.20348 4.95 8.925 4.95H7.11667C6.46333 4.95 6.13667 4.95 5.887 5.07717C5.66749 5.18902 5.48902 5.36749 5.37717 5.587C5.25 5.83667 5.25 6.16333 5.25 6.81667V9.38333C5.25 10.0367 5.25 10.3633 5.12283 10.613C5.01098 10.8325 4.83251 11.011 4.613 11.1228C4.36333 11.25 4.03667 11.25 3.38333 11.25H3.15C2.73634 11.25 2.32672 11.3315 1.94455 11.4898C1.56237 11.6481 1.21512 11.8801 0.922613 12.1726C0.630109 12.4651 0.398082 12.8124 0.239779 13.1945C0.081477 13.5767 0 13.9863 0 14.4C0 14.8137 0.081477 15.2233 0.239779 15.6055C0.398082 15.9876 0.630109 16.3349 0.922613 16.6274C1.21512 16.9199 1.56237 17.1519 1.94455 17.3102C2.32672 17.4685 2.73634 17.55 3.15 17.55H3.38333C4.03667 17.55 4.36333 17.55 4.613 17.6772C4.83251 17.789 5.01098 17.9675 5.12283 18.187C5.25 18.4367 5.25 18.7633 5.25 19.4167V19.8833C5.25 20.5367 5.25 20.8633 5.37717 21.113C5.48902 21.3325 5.66749 21.511 5.887 21.6228C6.13667 21.75 6.46333 21.75 7.11667 21.75H19.1333C19.7867 21.75 20.1133 21.75 20.363 21.6228C20.5825 21.511 20.761 21.3325 20.8728 21.113C21 20.8633 21 20.5367 21 19.8833V19.4167C21 18.7633 21 18.4367 20.8728 18.187C20.761 17.9675 20.5825 17.789 20.363 17.6772C20.1133 17.55 19.7867 17.55 19.1333 17.55H18.9C18.0646 17.55 17.2634 17.2181 16.6726 16.6274C16.0819 16.0366 15.75 15.2354 15.75 14.4C15.75 13.5646 16.0819 12.7634 16.6726 12.1726C17.2634 11.5819 18.0646 11.25 18.9 11.25H19.1333Z"
    stroke="currentColor"
    stroke-width="1.5"
    stroke-linecap="round"
    stroke-linejoin="round"
    fill="none"
  />
</symbol>

<symbol id="icon-palette" viewBox="0 0 24 23">
  <path
    d="M2.0635 4.46876C5.4935 -0.0999041 12.5985 -1.42874 17.6548 1.71543C22.6482 4.81876 24.4845 10.7886 22.4382 16.3886C20.5073 21.6771 15.4195 23.7713 11.7527 21.1113C10.3795 20.1149 9.84633 18.8654 9.58967 16.8366L9.466 15.6851L9.4135 15.2208C9.27 14.1311 9.05067 13.6434 8.591 13.3868C7.96683 13.0391 7.55033 13.0309 6.73017 13.3483L6.32067 13.5186L6.11183 13.6096C4.92883 14.1229 4.1425 14.3038 3.14733 14.0949L2.914 14.0401L2.72267 13.9853C-0.531166 12.9773 -1.013 8.56376 2.0635 4.46876ZM3.2115 12.3041L3.355 12.3473L3.51133 12.3823C4.0235 12.4838 4.461 12.3998 5.18783 12.0999L5.89017 11.8001C7.2925 11.2249 8.206 11.1701 9.44383 11.8584C10.5137 12.4558 10.9313 13.3728 11.1437 14.9618L11.2055 15.4973L11.2697 16.1179L11.3245 16.6103C11.5252 18.1981 11.8903 19.0486 12.7805 19.6949C15.4347 21.6199 19.2368 20.0554 20.7955 15.7878C22.5642 10.9438 20.9985 5.85476 16.7308 3.2006C12.4433 0.535929 6.34867 1.67693 3.46233 5.51876C1.0415 8.74226 1.339 11.6788 3.2115 12.3041ZM16.3073 9.97776C16.2522 9.79112 16.235 9.59533 16.2567 9.40193C16.2785 9.20853 16.3387 9.02144 16.4338 8.85168C16.529 8.68191 16.6572 8.53291 16.8108 8.41345C16.9644 8.294 17.1404 8.2065 17.3284 8.15612C17.5164 8.10573 17.7126 8.09349 17.9053 8.12009C18.0981 8.1467 18.2836 8.21163 18.4509 8.31105C18.6183 8.41047 18.764 8.54237 18.8795 8.69898C18.995 8.85559 19.0781 9.03374 19.1237 9.22293C19.2128 9.59272 19.154 9.98272 18.9596 10.3097C18.7653 10.6367 18.4509 10.8749 18.0835 10.9734C17.7161 11.0718 17.3247 11.0228 16.9929 10.8369C16.6611 10.6509 16.4151 10.3426 16.3073 9.97776ZM16.8837 14.0471C16.8341 13.8621 16.8215 13.6691 16.8465 13.4793C16.8715 13.2894 16.9336 13.1063 17.0294 12.9404C17.1252 12.7746 17.2527 12.6292 17.4046 12.5126C17.5566 12.396 17.73 12.3105 17.915 12.2609C18.1 12.2114 18.293 12.1987 18.4828 12.2237C18.6727 12.2487 18.8558 12.3109 19.0217 12.4067C19.1875 12.5024 19.3329 12.6299 19.4495 12.7819C19.5661 12.9338 19.6516 13.1073 19.7012 13.2923C19.8013 13.6659 19.7488 14.064 19.5554 14.3989C19.362 14.7339 19.0435 14.9783 18.6698 15.0784C18.2962 15.1785 17.8981 15.1261 17.5632 14.9327C17.2282 14.7393 16.9838 14.4207 16.8837 14.0471ZM13.9997 6.47426C13.8996 6.10064 13.952 5.70255 14.1454 5.36758C14.3388 5.03261 14.6574 4.78819 15.031 4.6881C15.4046 4.588 15.8027 4.64042 16.1377 4.83384C16.4727 5.02725 16.7171 5.34581 16.8172 5.71943C16.8667 5.90443 16.8794 6.09738 16.8544 6.28726C16.8294 6.47715 16.7672 6.66025 16.6714 6.82611C16.5757 6.99197 16.4482 7.13734 16.2962 7.25393C16.1443 7.37052 15.9708 7.45603 15.7858 7.5056C15.4122 7.60569 15.0141 7.55327 14.6792 7.35986C14.5133 7.26409 14.3679 7.13659 14.2513 6.98464C14.1347 6.83269 14.0492 6.65926 13.9997 6.47426ZM13.967 16.9719C13.9119 16.7853 13.8947 16.5895 13.9164 16.3961C13.9381 16.2027 13.9983 16.0156 14.0935 15.8458C14.1887 15.6761 14.3168 15.5271 14.4705 15.4076C14.6241 15.2882 14.8001 15.2007 14.9881 15.1503C15.1761 15.0999 15.3722 15.0877 15.565 15.1143C15.7578 15.1409 15.9433 15.2058 16.1106 15.3052C16.2779 15.4046 16.4236 15.5365 16.5392 15.6931C16.6547 15.8498 16.7377 16.0279 16.7833 16.2171C16.8725 16.5869 16.8136 16.9769 16.6193 17.3039C16.425 17.6309 16.1106 17.869 15.7432 17.9675C15.3757 18.066 14.9844 18.017 14.6526 17.831C14.3207 17.645 14.0747 17.3367 13.967 16.9719ZM9.88717 5.34026C9.83582 5.15467 9.82173 4.96075 9.84571 4.76969C9.8697 4.57863 9.93129 4.39421 10.0269 4.22707C10.1226 4.05994 10.2504 3.9134 10.4029 3.79591C10.5555 3.67842 10.7298 3.59231 10.9158 3.54255C11.1019 3.49279 11.2959 3.48037 11.4867 3.50599C11.6776 3.53162 11.8615 3.59478 12.0278 3.69185C12.1941 3.78892 12.3395 3.91796 12.4557 4.07153C12.5719 4.2251 12.6565 4.40015 12.7047 4.5866C12.8009 4.95898 12.7461 5.35429 12.5522 5.68646C12.3583 6.01863 12.0411 6.26077 11.6695 6.36016C11.298 6.45955 10.9022 6.40813 10.5684 6.21712C10.2346 6.0261 9.98973 5.71094 9.88717 5.34026Z"
    fill="currentColor"
  />
</symbol>

<symbol id="icon-arrow" viewBox="0 0 12 7">
  <path
    fill-rule="evenodd"
    clip-rule="evenodd"
    d="M10.9998 6.99979C11.1975 6.99974 11.3908 6.94107 11.5552 6.83119C11.7197 6.7213 11.8478 6.56514 11.9235 6.38244C11.9991 6.19974 12.0189 5.99871 11.9804 5.80476C11.9418 5.6108 11.8466 5.43264 11.7068 5.29279L6.70679 0.292787C6.51926 0.105316 6.26495 0 5.99979 0C5.73462 0 5.48031 0.105316 5.29279 0.292787L0.292787 5.29279C0.152978 5.43264 0.057771 5.6108 0.0192034 5.80476C-0.0193641 5.99871 0.000439122 6.19974 0.0761092 6.38244C0.151779 6.56514 0.279919 6.7213 0.444329 6.83119C0.608738 6.94107 0.802037 6.99974 0.999787 6.99979H10.9998Z"
    fill="currentColor"
  />

  <symbol id="icon-smile" viewBox="0 0 27 27">
  <path
    d="M13.2174 0C5.9291 0 0 5.9291 0 13.2174C0 20.5057 5.9291 26.4348 13.2174 26.4348C20.5057 26.4348 26.4348 20.5057 26.4348 13.2174C26.4348 5.9291 20.5057 0 13.2174 0ZM13.2174 2.2029C19.3139 2.2029 24.2319 7.12087 24.2319 13.2174C24.2319 19.3139 19.3139 24.2319 13.2174 24.2319C7.12087 24.2319 2.2029 19.3139 2.2029 13.2174C2.2029 7.12087 7.12087 2.2029 13.2174 2.2029ZM8.26087 8.81159C7.82269 8.81159 7.40245 8.98566 7.09261 9.2955C6.78276 9.60535 6.6087 10.0256 6.6087 10.4638C6.6087 10.902 6.78276 11.3222 7.09261 11.632C7.40245 11.9419 7.82269 12.1159 8.26087 12.1159C8.69905 12.1159 9.11929 11.9419 9.42913 11.632C9.73898 11.3222 9.91304 10.902 9.91304 10.4638C9.91304 10.0256 9.73898 9.60535 9.42913 9.2955C9.11929 8.98566 8.69905 8.81159 8.26087 8.81159ZM15.4203 9.91304V12.1159H20.9275V9.91304H15.4203ZM18.6905 14.353C18.6905 16.2078 17.9459 17.4943 16.8654 18.4151C15.786 19.3359 14.3574 19.8261 13.2174 19.8261C10.8812 19.8261 9.29293 18.8788 8.0538 17.6573L6.50516 19.2423C8.04168 20.7502 10.2655 22.029 13.2174 22.029C14.9301 22.029 16.8103 21.3835 18.3116 20.1014C19.8129 18.8194 20.8934 16.8412 20.8934 14.353H18.6905Z"
    fill="currentColor"
  />
</symbol>

<symbol id="icon-cube" viewBox="0 0 27 27">
  <path
    d="M23.625 18.002V8.99712C23.6246 8.70239 23.5471 8.41289 23.4001 8.15744C23.2531 7.902 23.0417 7.68951 22.7871 7.54113L14.7714 2.87624C14.3852 2.65141 13.9463 2.53296 13.4995 2.53296C13.0526 2.53296 12.6137 2.65141 12.2275 2.87624L4.21295 7.54113C3.95829 7.68951 3.74694 7.902 3.59992 8.15744C3.45291 8.41289 3.37536 8.70239 3.375 8.99712V18.002C3.37518 18.297 3.45263 18.5867 3.59966 18.8423C3.74668 19.098 3.95814 19.3106 4.21295 19.4591L12.2286 24.124C12.6149 24.3485 13.0537 24.4668 13.5005 24.4668C13.9473 24.4668 14.3862 24.3485 14.7725 24.124L22.7881 19.4591C23.0427 19.3105 23.254 19.0978 23.4008 18.8421C23.5476 18.5865 23.6249 18.2969 23.625 18.002Z"
    stroke="currentColor"
    stroke-width="1.5"
    stroke-linecap="round"
    stroke-linejoin="round"
    fill="none"
  />
  <path
    d="M3.63867 8.12061L13.5 13.9214M13.5 13.9214L23.3613 8.12061M13.5 13.9214V24.4683"
    stroke="currentColor"
    stroke-width="1.5"
    stroke-linecap="round"
    stroke-linejoin="round"
    fill="none"
  />
</symbol>
</symbol>
<symbol id="icon-google-play" viewBox="0 0 34 34" fill="none">
  <path
    d="M17.7274 17.0369L6.2085 28.2519C6.57683 29.5021 7.75266 30.4584 9.1502 30.4584C9.73812 30.4584 10.2528 30.3113 10.6944 30.0171L23.5648 22.7361L17.7274 17.0369Z"
    stroke="#F3680A"
    stroke-width="2"
    stroke-linecap="round"
    stroke-linejoin="round"
  />
  <path
    d="M17.7273 17.0368L23.4911 11.1902L29.0061 14.3522C29.9624 14.8671 30.6247 15.8963 30.6983 16.9999C30.6983 18.1035 30.0368 19.1327 29.0805 19.6477L23.564 22.736L17.7273 17.0368ZM17.7273 17.0368L6.20843 28.3255C6.13477 28.0315 6.13477 27.8105 6.13477 27.5165V6.55696C6.13477 6.26301 6.13477 5.96834 6.20843 5.74805L17.7273 17.0368Z"
    stroke="#FF6D0A"
    stroke-width="2"
    stroke-linecap="round"
    stroke-linejoin="round"
  />
  <path
    d="M17.7274 17.0369L23.4911 11.1903L10.768 3.98304C10.3275 3.68908 9.73954 3.54175 9.1502 3.54175C7.75266 3.54175 6.50245 4.498 6.2085 5.74821L17.7274 17.0369Z"
    stroke="#FF6A07"
    stroke-width="2"
    stroke-linecap="round"
    stroke-linejoin="round"
  />
</symbol>
 </defs>
</svg>